<svg xmlns="http://www.w3.org/2000/svg" enable-background="new 0 0 1920 1080" viewBox="0 0 1920 1080" id="boy-riding-cycle"><path fill="#2a94f4" d="M1269.96 501.28h105.08c76.15 0 137.87 61.73 137.87 137.87 0 75.79-61.18 137.37-136.97 137.87l-78.84.52c-11.22.07-20.28 9.19-20.28 20.42 0 11.28 9.14 20.42 20.42 20.42h201.85c45.34 0 82.1 36.76 82.1 82.1 0 45.34-36.76 82.1-82.1 82.1H741.9c-244.43 0-442.58-198.15-442.58-442.58 0-244.43 198.15-442.58 442.58-442.58h555.44c67.56 0 122.32 54.77 122.32 122.32 0 67.28-54.33 121.93-121.61 122.32l-28.56.17c-43.74.26-79.06 35.78-79.06 79.52.01 43.93 35.61 79.53 79.53 79.53zM1616.49 1039.46c0 14.31-275.82 25.91-616.07 25.91-340.25 0-616.07-11.6-616.07-25.91s275.82-25.91 616.07-25.91c340.24 0 616.07 11.6 616.07 25.91z" opacity=".1"></path><path fill="#dba17b" d="M1058.82 698.18c1.67-2.41 1.09-2.62 2.76-5.03.47-1.9.09-9.32-4.01-11.2-12.69-5.81-72.12-32.49-79.22-36-17.33-8.57-34.39-17.65-51.47-26.71-11.01-5.84-22.01-11.71-32.99-17.59-3.65-1.96-8.75-6.14-12.88-6.92-.01 0-40.62-7.66-45.57 33.27-4.95 40.94 5.46 35.28 37.52 53.29 28.72 16.13 151.4 28.92 184.04 21.78.23-1.75.81-3.43 1.82-4.89z"></path><path fill="#ffbe55" d="M1055.39 703.69s7.72-10.25 2.18-21.74c0 0 25.45-6.76 29.79 1.49s-6.56 11.5-4.1 26.37c2.47 14.87-8.73 32.95-10.14 29.85-1.42-3.1-5.72-25.78-10.05-29.57-4.31-3.77-7.68-6.4-7.68-6.4zM408.82 996.49c.16 1.11.33 2.21.5 3.3 2.08 13.74 4.67 27.41 8.52 40.44.68 2.29 1.41 4.56 2.17 6.82l-7.64.01c-.26-.95-.54-1.9-.78-2.85-1.78-6.95-3.2-13.94-4.37-20.92-1.03-6.14-1.87-12.32-2.6-18.44-.33-2.74-.62-5.47-.9-8.2-1.99-19.42-3.23-38.94-2.65-58.06.59-19.12 3.11-37.86 8.56-54.56-4.65 17.26-6.23 36.09-5.96 55.07.27 19.04 2.35 38.25 5.15 57.39zM450.39 1003.21c.21 6.65.6 13.31 1.16 19.98.39 4.8.88 9.58 1.45 14.37.22 1.9.47 3.81.73 5.7.17 1.25.36 2.51.54 3.76h-7.01c-.13-1.22-.26-2.44-.38-3.65-.16-1.58-.31-3.17-.43-4.76-.37-4.19-.65-8.38-.87-12.55-.32-6.09-.5-12.16-.54-18.22l.01-.01c-.08-8.22.09-16.4.48-24.53 1.9-39.54 8.63-77.7 17.61-114.61-7.49 37.53-12.67 76.12-13 115.44-.05 6.36.02 12.72.25 19.08zM493.04 936.19c-.91 1.46-1.88 2.85-2.75 4.36l-2.48 4.58c-3.09 6.26-5.77 12.84-7.71 19.8-1.12 3.4-1.82 7.02-2.71 10.52l-1.02 5.41-.5 2.7-.39 2.74c-.24 1.44-.43 2.89-.62 4.34-.77 5.89-1.19 11.88-1.55 17.88-.36 7.5-.43 15.06-.28 22.65.12 5.28.37 10.54.66 15.83h-6.55c-.03-5.55-.01-11.14.13-16.68.02-.63.04-1.27.08-1.9.06-2.23.17-4.46.3-6.66.25-4.81.61-9.59 1.06-14.35.58-5.19 1.22-10.38 2.08-15.49.38-2.31.81-4.61 1.31-6.9l.54-2.74.65-2.71 1.33-5.4c1.09-3.51 2.01-7.09 3.32-10.48 2.34-6.89 5.42-13.34 8.9-19.39l2.73-4.43c.94-1.44 2.01-2.78 3.01-4.17l1.52-2.07c.51-.66 1.1-1.26 1.65-1.89l3.33-3.78-3.12 4.03c-.5.66-1.04 1.32-1.53 2.02l-1.39 2.18z"></path><path fill="#ffbe55" d="M426.7 1047.04a.355.355 0 0 1-.02-.1 554.213 554.213 0 0 1-6.09-32.23c-.38-2.3-.73-4.58-1.08-6.88-1.22-8.14-2.28-16.26-3.18-24.4a622.44 622.44 0 0 1-1.74-17.74c-.01-.08-.02-.16-.02-.27-.07-.66-.12-1.34-.15-2-.21-2.41-.42-4.78-.58-7.17-.3-4.21-.56-8.42-.79-12.65-.07-1.16-.13-2.33-.19-3.47-1.14-22.42-1.34-44.72-.74-66.77.87 22.04 2.48 44.17 5.02 66.24.02.23.04.49.08.74.92 7.9 1.93 15.8 3.09 23.68.99 6.87 2.11 13.68 3.35 20.52 1.2 6.94 2.57 13.87 4.03 20.76.11.6.22 1.13.34 1.7 2.49 11.53 6.04 27.32 9.45 40.04H426.7z"></path><path fill="#0b4870" d="M1019.61 728.05 969 798.25c-9.62 13.34-2.31 33.91 10.92 41.65 15.35 8.98 32 2.45 41.65-10.92l50.61-70.2c9.62-13.34 2.31-33.91-10.92-41.65-15.35-8.97-32-2.45-41.65 10.92z"></path><path fill="#0b4870" d="m1083.73 712.46-36.14-.03c-15.92-.01-31.17 14.01-30.44 30.44.74 16.5 13.37 30.42 30.44 30.44l36.14.03c15.92.01 31.17-14.01 30.44-30.44-.74-16.51-13.37-30.43-30.44-30.44z"></path><path fill="#6b6b6b" d="M1015.77 816.5c0 12.53-10.16 22.69-22.69 22.69s-22.69-10.16-22.69-22.69c0-12.53 10.16-22.69 22.69-22.69s22.69 10.16 22.69 22.69z"></path><path fill="#ffbe55" d="M1011.07 816.5c-1.24 23.09-35.99 23.27-35.99 0-.01-23.3 34.74-23.08 35.99 0 1.05 19.48 31.49 19.61 30.44 0-1.41-26.23-21.07-48.44-48.43-48.44-26.4 0-48.29 22.15-48.43 48.44-.14 25.76 21.14 47.24 46.63 48.34 28.07 1.2 48.8-21.48 50.24-48.34 1.04-19.58-29.4-19.52-30.45 0z"></path><path fill="#0b4870" d="M863.95 415.86c-16.11-12.76-30.94-26.77-47.36-39.16-4.38-3.31-10.89-2.28-15.36 0-40.57 20.64-62.41 58.58-109.16 72.95-7.49 2.3-13.38 10.74-10.63 18.72 7.27 21.11 25.6 39.46 23.34 62.62-1.26 12.94-7.74 27.03-11.73 39.21-12.59 38.45-26.57 76.47-40.56 114.43-21.71 58.91-43.98 117.63-66.7 176.16-7.09 18.27 22.33 26.19 29.35 8.09 25.2-64.92 49.89-130.04 73.78-195.46 13.87-37.97 28.14-76 39.73-114.74 12.26-40.99-4-58.12-17.86-98.4-3.54 6.24-7.09 12.48-10.63 18.72 24.94-7.67 44.4-16.08 65.24-32.73 10.63-8.49 22.54-25.32 34.79-30.49 6.47-10.27 13.31-9.19 20.52 3.24 6.85 6.58 14.09 12.7 21.73 18.36 15.18 12.03 36.86-9.36 21.51-21.52z"></path><path fill="#ffbe55" d="M759.59 865.12c-3.34 86.7-70.2 159.13-159.13 159.13-86.85 0-159.13-72.36-159.13-159.13 0-86.72 72.24-159.13 159.13-159.13 88.95 0 155.79 72.43 159.13 159.13.75 19.52 31.19 19.62 30.44 0-3.98-103.35-83.41-189.17-189.57-189.57-103.18-.38-189.57 86.68-189.57 189.57 0 103.16 86.39 189.57 189.57 189.57 106.2 0 185.6-86.49 189.57-189.57.75-19.59-29.69-19.56-30.44 0z"></path><path fill="#0b4870" d="M781.35 813.37c-.06.06-.15.12-.2.15-6.56 4.22-17.54 3.09-21.1-6.56-2.1-5.71-4.52-11.25-7.2-16.61-28.47-57.2-87.59-94.96-152.4-95.05-60.38-.09-115.89 41.7-146.19 95.05-4.84 8.48-9 17.28-12.47 26.22-.32.82-1.92.96-2.42 0h-11.16c-7.9 0-15.65-8.45-12.65-16.58 28.67-77.31 101.67-130.92 184.89-130.92 83.22 0 156.21 53.61 184.89 130.92 2.22 6.01-.02 10.7-3.99 13.38z"></path><path fill="#ffbe55" d="M1444.13 865.12c-3.34 86.7-70.2 159.13-159.13 159.13-86.85 0-159.13-72.36-159.13-159.13 0-86.72 72.24-159.13 159.13-159.13 88.95 0 155.79 72.43 159.13 159.13.75 19.52 31.19 19.62 30.44 0-3.98-103.35-83.4-189.17-189.57-189.57-103.18-.38-189.57 86.68-189.57 189.57 0 103.16 86.39 189.57 189.57 189.57 106.2 0 185.6-86.49 189.57-189.57.75-19.59-29.69-19.56-30.44 0z"></path><path fill="#0b4870" d="M1465.89 813.37c-.06.06-.15.12-.2.15-6.56 4.22-17.54 3.09-21.1-6.56-2.1-5.71-4.52-11.25-7.2-16.61-28.47-57.2-87.59-94.96-152.4-95.05-60.38-.09-115.89 41.7-146.19 95.05-4.84 8.48-9 17.28-12.47 26.22-.32.82-1.92.96-2.42 0h-11.16c-7.9 0-15.65-8.45-12.65-16.58 28.67-77.31 101.67-130.92 184.89-130.92 83.22 0 156.21 53.61 184.89 130.92 2.22 6.01-.03 10.7-3.99 13.38z"></path><path fill="#0b4870" d="M665.8 677.34c38.05 30.71 76.1 61.43 114.14 92.14 24.53 19.8 56.82 58.53 88.34 65.7 20.12 4.58 46.55 0 67.1 0h96.26c40.17 0 70.3-24.16 105.21-43.17 17.21-9.38 1.86-35.67-15.36-26.28-20.56 11.2-41.68 21.74-61.81 33.68-8.94 5.3-12.25 5.99-8.66 5.34-8.27 1.49-18.18 0-26.52 0-51.06 0-104.36 4.66-155.2 0-4-.37 13.29 8.27 3.17.53-6.1-4.67-11.97-9.66-17.94-14.48-21.5-17.36-43.01-34.71-64.51-52.07-34.23-27.63-68.46-55.27-102.69-82.9-15.11-12.21-36.78 9.2-21.53 21.51zM687.02 643.57c154.78 37.99 309.56 75.98 464.35 113.97 19.02 4.67 27.14-24.68 8.09-29.35-154.78-37.99-309.56-75.98-464.35-113.97-19.02-4.67-27.13 24.68-8.09 29.35z"></path><path fill="#0b4870" d="M979.98 591.39v113.18c0 19.59 30.44 19.62 30.44 0V591.39c0-19.59-30.44-19.62-30.44 0zM967.14 800.83l-50.61 70.2c-9.62 13.34-2.31 33.91 10.92 41.64 15.35 8.98 32 2.45 41.65-10.92l50.61-70.2c9.62-13.34 2.31-33.91-10.92-41.65-15.35-8.97-32.01-2.45-41.65 10.93z"></path><path fill="#0b4870" d="m942.81 855.95-36.14-.03c-15.92-.01-31.17 14.01-30.44 30.44.74 16.5 13.37 30.42 30.44 30.44l36.14.03c15.92.01 31.17-14.01 30.44-30.44-.74-16.51-13.38-30.43-30.44-30.44zM1269.88 664.78v200.04l28.36-7.68c-49.71-66.68-99.41-133.36-149.12-200.04-11.57-15.53-38.01-.37-26.28 15.36 49.71 66.68 99.41 133.36 149.12 200.04 8.51 11.41 28.36 8.65 28.36-7.68V664.78c0-19.58-30.44-19.61-30.44 0z"></path><path fill="#0b4870" d="M1296.69 649.57h-176.78c-19.58 0-19.62 30.44 0 30.44h176.78c19.59-.01 19.62-30.44 0-30.44z"></path><path fill="#ffbe55" d="M1147.45 988.12c-.19 1.29-.39 2.57-.59 3.85-2.43 16.02-5.45 31.95-9.93 47.14-.79 2.67-1.64 5.32-2.53 7.95l8.91.01c.31-1.11.63-2.21.91-3.32 2.08-8.1 3.73-16.25 5.1-24.39 1.2-7.16 2.18-14.36 3.03-21.49.38-3.19.72-6.37 1.05-9.56 2.32-22.63 3.77-45.39 3.08-67.68-.69-22.29-3.62-44.14-9.98-63.6 5.42 20.12 7.26 42.08 6.94 64.2-.3 22.18-2.72 44.57-5.99 66.89zM1099 995.96c-.25 7.75-.69 15.52-1.35 23.29-.45 5.59-1.02 11.17-1.69 16.75-.26 2.22-.55 4.44-.85 6.64-.2 1.46-.42 2.92-.63 4.38l8.17.01c.15-1.42.31-2.84.45-4.26.19-1.85.36-3.7.5-5.55.43-4.89.76-9.76 1.01-14.63.37-7.1.59-14.18.63-21.24l-.01-.01c.1-9.58-.1-19.12-.56-28.6-2.21-46.09-10.06-90.57-20.53-133.6 8.73 43.75 14.77 88.74 15.16 134.57.05 7.42-.04 14.83-.3 22.25zM1049.28 917.83c1.06 1.7 2.2 3.32 3.2 5.08l2.89 5.34c3.6 7.3 6.72 14.97 8.99 23.09 1.3 3.97 2.12 8.18 3.16 12.27l1.19 6.31.59 3.15.46 3.2c.27 1.68.5 3.37.72 5.06.89 6.86 1.39 13.85 1.81 20.85.42 8.74.5 17.55.33 26.4-.14 6.15-.43 12.28-.77 18.45l7.64.01c.03-6.47.01-12.98-.16-19.44-.02-.73-.05-1.48-.09-2.21-.07-2.6-.19-5.2-.35-7.77-.29-5.61-.71-11.17-1.24-16.72-.68-6.05-1.42-12.1-2.42-18.06-.44-2.7-.94-5.38-1.52-8.04l-.64-3.19-.75-3.15-1.55-6.29c-1.27-4.09-2.34-8.26-3.87-12.21-2.73-8.03-6.32-15.55-10.38-22.6l-3.18-5.17c-1.09-1.68-2.35-3.24-3.51-4.86l-1.77-2.41c-.6-.76-1.29-1.47-1.93-2.21l-3.88-4.41 3.63 4.7c.58.77 1.21 1.53 1.78 2.35l1.62 2.48z"></path><path fill="#ffbe55" d="M1126.61 1047.05c.01-.04.02-.09.03-.12 2.76-12.56 5.11-25.07 7.1-37.57.44-2.68.86-5.34 1.26-8.02a750.07 750.07 0 0 0 3.71-28.44c.78-6.89 1.44-13.78 2.03-20.68.01-.1.03-.19.03-.31.08-.77.14-1.56.18-2.33.25-2.81.49-5.57.67-8.36.35-4.91.66-9.81.92-14.75.09-1.35.16-2.72.22-4.04 1.33-26.14 1.56-52.13.86-77.83-1.01 25.69-2.89 51.49-5.85 77.22-.02.26-.05.58-.09.86-1.07 9.21-2.25 18.42-3.61 27.6-1.16 8-2.46 15.95-3.9 23.92-1.4 8.09-3 16.17-4.7 24.2-.12.69-.25 1.31-.39 1.98-2.9 13.44-7.04 31.85-11.02 46.67h12.55z"></path><path fill="#0e538c" d="M932.39 463.76S823.31 627.79 827.3 643.31c3.99 15.51 50.53 64.07 129.6-36.34 79.07-100.42 94.54-85.53 76.07-152.11-18.47-66.58-100.58 8.9-100.58 8.9z"></path><path fill="#dba17b" d="M1061.65 474.09c-.03 13.58-.48 25.55-1.48 34.66-5.76 53.6-154.02 136.89-153.65 154.02.06 2.84.88 9.5 2.15 18.77 6.13 44.16 23 146.99 21.27 171.97-5.5 2.64-11.14 4.79-16.96 6.55-4.14-5.5-9.53-13.58-16.53-24.9-21.75-35.14-64.23-121.58-79.18-168.54-3.97-12.34-5.98-21.92-5.27-27.17 2.72-19.82 82.44-114.91 117.07-155.41 8.31-9.7 14.01-16.28 15.46-17.95v-.03c.14-.14.23-.2.28-.28a.76.76 0 0 0 .11-.11l94.52-141.43c8.31 26.35 15.48 59.87 20.73 88.14.74 16.53 1.28 33.15 1.45 48.41.06 4.57.08 9.02.03 13.3z"></path><path fill="#ffbe55" d="M917.97 527.85s-42.89-4.73-38.17 7.56c4.73 12.29 154.09 68.06 172.99 48.21s19.79-35.13 13.23-42.54c-8.54-9.62-45.27-7.11-56.71-7.99-30.39-2.33-60.87-3.96-91.34-5.24z"></path><path fill="#0e538c" d="M1060.18 508.76c-5.77 53.59-154.04 136.89-153.66 154 .05 2.85.88 9.52 2.15 18.78-32.27-14.68-68.21-16.05-91.4-14.92-3.95-12.33-5.96-21.91-5.25-27.17C815.36 614.91 937 474.74 944.53 466.1v-.03c.12-.13.22-.21.28-.29.06-.08.09-.11.09-.11l116.71-4.88c.23 19.05-.15 35.95-1.43 47.97z"></path><path fill="#ffbe55" d="M905.24 858.05s18.27 3.17 29.39-11.52c0 0 25.46 28.28 17.71 39.3-7.75 11.02-19.12-.86-36.62 12.11-17.5 12.97-48.13 10.49-45.08 6.63 3.05-3.86 29.38-24.35 31.41-32.4 2.04-8.06 3.19-14.12 3.19-14.12z"></path><path fill="#2a94f4" d="M1069.81 470.66s-2.98 1.36-8.17 3.43c-23.03 9.19-89.7 32.13-132.58 9.95-.96-.51-1.9-1.02-2.84-1.56 0 0-3.52-31.2-5.1-84.14-1.62-52.95-.82-95.83 20.93-131.7l39.19-9.76s13.41-4.6 40.35 28.02c6.32 7.66 12.34 21.95 17.84 39.33 8.31 26.35 15.48 59.87 20.73 88.14 6.08 32.6 9.65 58.29 9.65 58.29z"></path><path fill="#c18a6b" d="M933.74 237.21s10.23 13.43 8.31 29.42c-1.92 15.99 43.04 5.59 39.2-9.76-3.84-15.35-10.42-44.61-10.42-44.61l-37.09 24.95z"></path><path fill="#dba17b" d="M876.4 172.92s22.82 67.68 49.83 69.23c17.1.99 36.93-.47 44.6-24.77 7.67-24.3-17.27-59.48-17.27-59.48l-66.52 12.79-10.64 2.23z"></path><path fill="#0b4870" d="M931.69 101.43c-13.65 1.28-66.61 28.12-80.25 44.32s22.97 35.82 34.94 32.41c11.97-3.41 38.4-5.12 45.22-5.97 6.82-.85 5.85-3.16 10.23 11.94 7.08 24.37 13.72-14.44 23.03 6.82 5.86 13.37-10.23 23.88-7.68 26.44 2.56 2.56 13.65-6.82 13.65 0s-.85 18.76 7.67 27.29c8.53 8.53-1.71-8.53 5.97-26.44 7.67-17.91 23.03-31.55 13.64-66.52-6.92-25.8-31.29-43.28-56.21-49.58-3.43-.87-6.83-1.03-10.21-.71z"></path><path fill="#dba17b" d="M1019.19 353.99c-20.05 42.11-58.39 89.05-76.26 91.63-26.6 3.83-110.4-45.38-118.46-49.18-8.05-3.77-2.33-5.67-15.57.96-13.24 6.61-19.37 4-29.78 5.9-10.41 1.87-4.48-10.72 4.96-22.69 9.44-11.97 19.14-13.47 34.26-5.59 15.14 7.88 95.49 18.58 107.88 14.8 10.95-3.35 35.02-55.95 40.47-68.12.71-1.59 1.11-2.49 1.11-2.49 14.26-30.23 52.86-56.07 63.24-17.78 3.41 12.57-2.04 32-11.85 52.56z"></path><path fill="#2a94f4" d="M1004.34 401.83c-15.91-18.66-51.21-34.75-64.09-38.81.71-1.59 47.01-135.06 95.27-68.05 16.43 22.8-21.37 86.3-31.18 106.86z"></path></svg>